<?xml version="1.0" standalone="no"?>
<!DOCTYPE svg PUBLIC "-//W3C//DTD SVG 20010904//EN"
 "http://www.w3.org/TR/2001/REC-SVG-20010904/DTD/svg10.dtd">
<svg version="1.0" xmlns="http://www.w3.org/2000/svg"
 width="512.000000pt" height="512.000000pt" viewBox="0 0 512.000000 512.000000"
 preserveAspectRatio="xMidYMid meet">
<metadata>
Created by potrace 1.14, written by Peter Selinger 2001-2017
</metadata>
<g transform="translate(0.000000,512.000000) scale(0.100000,-0.100000)"
fill="#000000" stroke="none">
<path d="M2861 4955 c-71 -19 -111 -71 -111 -144 l0 -40 -102 65 c-83 52 -109
64 -142 64 -58 -1 -24 19 -621 -365 -44 -29 -195 -125 -335 -215 -355 -226
-356 -227 -380 -258 -46 -57 1 -152 75 -152 17 0 45 9 63 20 18 11 36 20 40
20 4 0 8 -273 8 -607 0 -466 3 -617 13 -646 17 -50 54 -93 105 -120 40 -22 47
-22 448 -22 l408 0 27 28 28 27 5 241 5 241 85 0 c47 0 95 0 108 -1 l22 -1 0
-225 c0 -252 5 -276 63 -300 39 -16 760 -18 817 -2 51 14 105 56 132 102 l23
40 3 623 c1 342 6 622 10 622 4 0 21 -9 37 -20 60 -40 135 -13 153 53 15 56
-6 90 -89 142 -24 16 -73 47 -109 70 -98 64 -259 167 -312 200 l-46 30 0 213
c0 189 -3 217 -19 249 -33 63 -73 76 -235 77 -77 1 -157 -3 -177 -9z m229
-397 c5 -202 5 -206 31 -242 17 -23 74 -68 155 -119 71 -45 138 -89 150 -97
21 -15 21 -16 21 -672 0 -474 -3 -660 -11 -667 -6 -4 -149 -8 -318 -8 l-308 0
0 236 c0 324 17 307 -310 305 -257 -2 -241 -1 -275 -28 l-30 -24 -5 -244 -5
-243 -308 -1 c-215 -1 -310 2 -315 10 -9 15 -10 1297 -1 1317 4 9 93 70 196
136 103 66 310 199 458 294 149 95 277 173 285 173 8 0 67 -33 130 -74 90 -58
124 -74 160 -77 92 -8 160 65 160 173 0 59 1 59 84 58 l51 0 5 -206z"/>
<path d="M3388 2465 c-2 -2 -25 -6 -53 -9 -118 -15 -158 -35 -465 -224 -129
-80 -270 -166 -312 -192 l-78 -48 -67 25 c-38 13 -101 40 -141 59 -41 19 -76
34 -79 34 -2 0 -52 26 -111 59 -59 32 -137 75 -173 94 -180 98 -412 156 -607
152 -257 -7 -377 -43 -787 -240 -77 -37 -160 -76 -185 -87 -94 -40 -128 -103
-95 -172 21 -44 66 -70 109 -63 17 3 78 28 136 55 412 195 474 222 572 247 88
23 147 30 263 30 210 0 358 -44 578 -171 300 -173 675 -310 957 -349 25 -3 52
-8 60 -10 8 -2 35 -7 60 -10 100 -11 135 -28 184 -88 27 -34 31 -46 31 -102 0
-55 -4 -68 -31 -102 -33 -41 -98 -79 -154 -87 -226 -36 -489 -22 -670 36 -114
36 -110 34 -216 82 -45 20 -98 39 -117 43 -90 14 -154 -94 -103 -172 28 -43
306 -163 441 -191 69 -14 189 -34 240 -40 66 -7 280 -7 335 1 19 2 58 7 85 10
179 21 312 109 381 251 19 39 34 82 34 95 0 13 4 29 8 35 10 15 920 594 959
611 38 16 104 17 155 3 80 -23 138 -106 138 -198 0 -54 -35 -136 -71 -168 -21
-19 -179 -127 -530 -364 -105 -70 -341 -231 -509 -345 -757 -515 -749 -510
-847 -541 -27 -8 -88 -17 -138 -19 -114 -5 -195 15 -342 86 -192 92 -545 260
-663 316 -178 85 -290 105 -435 78 -72 -13 -854 -327 -880 -353 -55 -54 -38
-149 31 -178 43 -18 70 -13 174 28 41 17 85 34 98 39 12 5 32 13 45 19 105 45
532 209 567 218 107 26 173 9 413 -110 76 -37 139 -68 141 -68 2 0 98 -46 212
-101 248 -120 343 -162 406 -177 163 -41 310 -35 468 18 93 31 150 63 345 196
143 96 554 376 765 519 263 180 497 338 640 433 161 108 245 186 283 264 131
267 5 561 -271 632 -74 20 -151 20 -222 2 l-54 -14 -51 42 c-60 50 -110 73
-187 84 -71 11 -185 7 -249 -8 -47 -11 -50 -11 -80 15 -66 55 -148 82 -271 89
-37 2 -68 3 -70 1z m129 -239 c3 -3 -21 -21 -52 -41 -31 -20 -151 -99 -265
-175 l-209 -137 -78 13 c-43 8 -88 15 -100 16 -13 1 -23 5 -23 9 0 7 397 252
457 283 51 26 142 43 207 40 32 -2 61 -5 63 -8z m542 -91 l35 -12 -70 -44
c-38 -25 -163 -105 -279 -178 -115 -74 -248 -158 -294 -188 l-84 -55 -26 33
c-14 19 -39 46 -54 61 l-29 27 39 24 c21 14 133 87 248 162 115 76 225 144
244 152 77 32 204 41 270 18z"/>
</g>
</svg>
